<?xml version="1.0" encoding="UTF-8"?>
<!-- Generated by Pixelmator Pro 3.8 -->
<svg width="1672" height="571" viewBox="0 0 1672 571" xmlns="http://www.w3.org/2000/svg">
    <path id="Shape" fill="#ffffff" fill-rule="evenodd" stroke="none" d="M 1150.187622 546.650879 C 1144.77478 546.560791 1137.377563 545.987183 1133.749268 545.376282 C 1130.12085 544.76532 1124.052979 543.236023 1120.265137 541.977844 C 1116.477051 540.719666 1110.532104 537.517395 1107.053955 534.861694 C 1103.575806 532.205994 1099.05896 527.181396 1097.016357 523.695923 C 1094.321655 519.097839 1093.116821 514.762939 1092.625732 507.900024 C 1092.150391 501.256927 1092.636475 496.371368 1094.258667 491.487335 C 1095.529053 487.662628 1098.753052 481.981018 1101.42334 478.861542 C 1104.093384 475.742065 1110.004883 471.327545 1114.559692 469.051422 C 1119.114624 466.775299 1127.204834 464.133209 1132.537964 463.180115 C 1138.556763 462.104553 1147.687622 461.74762 1156.610474 462.239105 C 1165.443115 462.725647 1173.940063 464.078552 1178.646484 465.747803 C 1182.859497 467.242004 1188.656738 469.860168 1191.529297 471.565948 C 1194.401855 473.271729 1196.752075 475.749634 1196.752075 477.072479 C 1196.752075 478.395294 1195.299683 480.842041 1193.524536 482.509674 C 1190.297119 485.541718 1190.297119 485.541718 1182.695679 481.424561 C 1178.315918 479.052429 1170.843872 476.605499 1165.066284 475.651337 C 1159.550903 474.740509 1149.801025 474.322021 1143.399902 474.721375 C 1135.820557 475.194214 1129.372681 476.503815 1124.911865 478.476349 C 1121.144531 480.142273 1116.261475 483.195129 1114.060669 485.26062 C 1111.859863 487.32605 1109.196289 491.032715 1108.141479 493.49765 C 1107.086914 495.962524 1106.234375 500.97641 1106.246948 504.639587 C 1106.261719 508.937012 1107.377441 513.255615 1109.392334 516.812866 C 1111.109741 519.845032 1115.016479 524.059937 1118.074097 526.17926 C 1121.131714 528.298584 1127.36853 530.988281 1131.934082 532.156311 C 1136.499512 533.324341 1145.29895 534.280029 1151.488037 534.280029 C 1157.677124 534.280029 1166.42627 533.320129 1170.930664 532.146912 C 1175.434814 530.973694 1181.46936 528.693481 1184.340698 527.079773 C 1187.211792 525.466003 1190.515869 524.511963 1191.682617 524.959717 C 1192.849609 525.407532 1194.896729 527.44104 1196.231812 529.47876 C 1198.600586 533.094116 1198.577393 533.245911 1195.268433 535.764465 C 1193.40332 537.184021 1188.430542 539.600891 1184.217407 541.135376 C 1180.004395 542.669861 1172.838501 544.575439 1168.293213 545.369995 C 1163.748169 546.164612 1155.600586 546.740967 1150.187622 546.650879 Z M 134.787491 543.332825 L 134.787491 463.946625 L 170.302368 463.985138 C 199.922195 464.017273 207.13118 464.423828 213.732971 466.434448 C 218.086609 467.760376 224.347443 470.903625 227.645935 473.419464 C 231.362564 476.254242 235.224731 481.086304 237.802338 486.126404 C 241.347 493.057434 241.948303 495.771576 241.871658 504.494995 C 241.796692 513.033142 241.091263 516.063293 237.618515 522.764526 C 234.669434 528.455261 231.506363 532.121765 226.772583 535.33667 C 223.097122 537.832886 216.87854 540.776306 212.953552 541.877563 C 208.783707 543.047485 197.712036 544.055542 186.318878 544.302673 C 175.594757 544.535278 159.613098 544.412231 150.804001 544.029236 L 134.787491 543.332825 Z M 515.005615 543.332825 L 515.005615 463.946625 L 560.269714 463.946625 C 605.533752 463.946625 605.533752 463.946625 605.533752 469.517578 C 605.533752 475.088562 605.533752 475.088562 566.537048 475.784912 L 527.540283 476.481293 L 527.540283 486.230469 L 527.540283 495.979675 L 563.751526 496.676025 C 599.96283 497.372406 599.96283 497.372406 599.96283 502.943359 C 599.96283 508.514343 599.96283 508.514343 563.751526 509.210693 L 527.540283 509.907074 L 527.540283 521.049011 L 527.540283 532.190918 L 567.233398 532.887268 C 606.926514 533.583679 606.926514 533.583679 606.926514 538.458252 C 606.926514 543.332825 606.926514 543.332825 593.695496 543.61377 C 586.418457 543.768311 571.690186 544.082703 560.966064 544.312561 C 550.241943 544.542419 535.513672 544.415955 528.236694 544.031616 L 515.005615 543.332825 Z M 692.047485 545.157593 C 685.724304 545.559387 685.301453 545.383667 686.016052 542.651001 C 686.438782 541.03479 694.36084 528.152344 703.620728 514.023315 C 712.880615 499.894348 724.055664 482.847076 728.454163 476.140472 C 736.451355 463.946625 736.451355 463.946625 743.462524 463.536102 C 750.473694 463.125549 750.473694 463.125549 761.744202 480.248962 C 767.942993 489.66687 779.138733 506.773407 786.623657 518.263489 C 794.108643 529.753601 800.52655 540.251404 800.885681 541.591919 C 801.442871 543.671814 800.532043 544.029236 794.673279 544.029236 C 787.807739 544.029236 787.807739 544.029236 778.842468 530.090271 C 773.911499 522.423828 764.676208 508.16568 758.319458 498.405457 C 751.962708 488.645172 745.908875 479.798615 744.866455 478.746399 C 743.263733 477.128571 741.715637 478.788239 734.83667 489.499023 C 730.362732 496.465149 720.434875 511.740906 712.77478 523.445129 C 698.847351 544.725586 698.847351 544.725586 692.047485 545.157593 Z M 325.592926 463.946625 C 405.664886 463.946625 406.489258 464.004425 413.079285 467.249023 C 417.106201 469.231689 421.082703 472.571167 423.029602 475.605469 C 424.813202 478.385193 426.67865 483.000488 427.175171 485.861694 C 427.6716 488.722809 427.398071 493.588257 426.5672 496.673706 C 425.73645 499.759125 423.194855 504.404022 420.919312 506.995728 C 418.643799 509.587433 414.219971 512.733032 411.088623 513.985962 C 405.868988 516.074463 405.551727 516.487122 407.276245 518.945862 C 408.310852 520.420898 413.23111 526.141602 418.210175 531.658447 C 423.18924 537.175415 427.471924 542.215759 427.727203 542.859253 C 427.982544 543.502747 424.521118 544.029236 420.035004 544.029236 C 411.878571 544.029236 411.878571 544.029236 399.587097 530.070251 C 387.295685 516.111267 387.295685 516.111267 362.711609 516.491028 L 338.127594 516.870789 L 337.431213 530.101807 C 336.734863 543.332825 336.734863 543.332825 331.500885 543.765747 C 328.108765 544.046326 326.0177 543.549255 325.558746 542.353271 C 325.16925 541.338257 325.017609 523.281555 325.221741 502.227234 L 325.592926 463.946625 Z M 891.382507 543.765747 C 887.971741 544.047913 885.950195 543.562744 885.579041 542.373047 C 885.265747 541.368896 884.626221 524.024658 884.157837 503.830139 C 883.537415 477.076385 883.741211 466.588867 884.909119 465.18161 C 885.825684 464.077271 889.103088 463.250244 892.562744 463.250244 C 898.463196 463.250244 898.848328 463.53894 908.060547 474.866058 C 913.25647 481.25473 923.389893 493.476013 930.579285 502.024475 C 937.768677 510.572968 944.072327 517.567139 944.58728 517.567139 C 945.102295 517.567139 955.828491 505.325073 968.423218 490.362579 C 991.322876 463.15802 991.322876 463.15802 998.28656 463.552338 C 1005.250305 463.946625 1005.250305 463.946625 1005.250305 503.63974 C 1005.250305 543.332825 1005.250305 543.332825 998.982971 543.332825 C 992.715637 543.332825 992.715637 543.332825 992.339478 513.630371 C 992.120544 496.350891 991.42804 484.118164 990.683594 484.382813 C 989.979858 484.633057 979.59137 496.309998 967.598083 510.331665 C 955.604736 524.353333 944.989075 535.634583 944.00769 535.401001 C 943.026367 535.16748 938.950684 531.112793 934.950623 526.390564 C 930.950562 521.668335 921.362915 510.387146 913.644775 501.321228 C 905.926636 492.25528 899.107117 484.633057 898.490295 484.382813 C 897.873596 484.132629 897.199646 497.294037 896.992676 513.630371 C 896.616516 543.332825 896.616516 543.332825 891.382507 543.765747 Z M 1280.02124 544.029236 C 1274.043701 544.029236 1273.121582 543.675171 1273.672729 541.591919 C 1274.027466 540.251404 1285.440552 522.076111 1299.035156 501.202454 C 1323.752563 463.250244 1323.752563 463.250244 1331.037598 463.250244 C 1338.322632 463.250244 1338.322632 463.250244 1362.855957 501.21756 C 1376.349365 522.099609 1387.807617 540.274841 1388.318848 541.607056 C 1389.127563 543.714661 1388.317871 544.029236 1382.083984 544.029236 C 1374.9198 544.029236 1374.9198 544.029236 1361.97644 524.182678 C 1354.857544 513.26709 1345.32312 498.426453 1340.788696 491.203461 C 1336.254272 483.980499 1331.917603 477.87262 1331.151489 477.630371 C 1330.385498 477.388092 1320.141357 492.228729 1308.386597 510.609558 C 1287.014282 544.029236 1287.014282 544.029236 1280.02124 544.029236 Z M 1469.032837 463.946625 C 1549.894775 463.946625 1549.894775 463.946625 1556.817017 467.511078 C 1560.624268 469.471497 1565.063721 473.040894 1566.682617 475.443024 C 1568.301636 477.845184 1570.038696 482.390869 1570.543091 485.544556 C 1571.047363 488.698242 1570.803101 493.717957 1570.000244 496.699463 C 1569.197388 499.680908 1566.984863 503.969177 1565.083496 506.228821 C 1563.182129 508.488495 1558.813721 511.493958 1555.376099 512.907654 C 1551.938477 514.32135 1549.123535 515.872559 1549.120728 516.354675 C 1549.117798 516.836853 1553.972656 522.758423 1559.90918 529.513733 C 1565.845703 536.269043 1570.911865 542.298584 1571.167236 542.912659 C 1571.422607 543.526794 1567.975342 544.018188 1563.50708 544.004822 C 1555.382813 543.980347 1555.382813 543.980347 1543.025757 530.045227 C 1530.668579 516.110107 1530.668579 516.110107 1506.814453 516.490417 L 1482.960205 516.870789 L 1482.263916 530.101807 C 1481.567505 543.332825 1481.567505 543.332825 1475.63562 543.761719 C 1471.676392 544.047974 1469.46875 543.578247 1468.997192 542.349243 C 1468.608521 541.336487 1468.45752 523.281555 1468.661743 502.227234 L 1469.032837 463.946625 Z M 147.322144 476.481293 C 146.733093 517.43103 146.894775 530.186646 147.301361 531.246277 C 147.908813 532.829163 153.070053 533.055969 176.232605 532.517395 C 194.778229 532.086243 206.30603 531.213623 209.92334 529.967102 C 212.947739 528.924927 217.730652 525.865295 220.552078 523.167908 C 224.458969 519.432739 226.101913 516.373413 227.443314 510.335876 C 228.867004 503.927979 228.863815 501.19101 227.426743 496.05835 C 226.251999 491.862518 223.850021 488.083221 220.346069 484.917664 C 217.429504 482.282715 212.340668 479.30661 209.037491 478.304077 C 204.948868 477.063171 194.140167 476.481293 175.176956 476.481293 L 147.322144 476.481293 Z M 338.127594 476.481293 C 337.494812 494.650208 337.631805 500.760834 338.023804 501.78241 C 338.58963 503.256958 345.418701 503.638672 371.161499 503.634552 C 400.844513 503.629761 403.962799 503.399841 408.037231 500.915466 C 411.168945 499.00592 412.756165 496.7724 413.392792 493.379059 C 413.950165 490.408081 413.578094 487.040527 412.423798 484.608002 C 411.39328 482.43634 408.282288 479.550537 405.51059 478.195099 C 401.068085 476.022614 396.778503 475.775116 369.299347 476.105988 L 338.127594 476.481293 Z M 1482.960205 476.481293 C 1482.327515 494.650208 1482.464478 500.760834 1482.856567 501.78241 C 1483.421387 503.254486 1490.092651 503.63974 1515.018799 503.63974 C 1539.960938 503.63974 1547.287231 503.216248 1550.426392 501.592957 C 1552.603271 500.467224 1555.057129 497.616028 1555.879517 495.257019 C 1556.701904 492.89798 1557.013672 489.162476 1556.572388 486.955811 C 1556.130981 484.749146 1554.223267 481.489685 1552.332886 479.712524 C 1548.937378 476.520508 1548.495605 476.481293 1515.927979 476.481293 L 1482.960205 476.481293 Z M 1127.974121 386.315063 C 1053.199341 386.131104 962.093201 385.842468 925.516235 385.673706 C 888.939209 385.504883 758.735229 384.654022 636.174072 383.782837 C 513.612915 382.911652 413.040344 381.91272 412.679504 381.562988 C 412.318726 381.213257 412.830994 380.42807 413.817902 379.818146 C 414.80481 379.208191 422.934204 378.303253 431.883148 377.80719 C 440.832184 377.311157 486.542694 375.690125 533.462158 374.204956 C 580.381531 372.719757 643.681641 370.829681 674.128967 370.004761 C 704.576294 369.17981 757.063904 367.892212 790.76825 367.143372 C 824.472595 366.394592 894.039978 365.101501 945.362427 364.269928 C 996.684875 363.438354 1067.505737 362.649658 1102.742065 362.517273 C 1143.668701 362.363495 1173.349365 362.882202 1184.918945 363.953308 C 1195.086426 364.894653 1210.083252 367.44873 1219.111938 369.776672 C 1227.957031 372.057312 1240.098755 375.871643 1246.093384 378.252991 C 1252.088013 380.634338 1257.318237 382.257263 1257.715942 381.859558 C 1258.113647 381.461853 1256.821533 377.519714 1254.844482 373.099243 C 1252.86731 368.678833 1249.901001 360.361572 1248.252319 354.616516 C 1246.286133 347.764343 1244.996094 338.392059 1244.502197 327.372314 C 1243.831909 312.412415 1244.142822 309.009979 1247.343994 296.288116 C 1249.321045 288.43103 1252.97937 277.574982 1255.473633 272.163574 C 1257.968018 266.752167 1262.443604 258.804382 1265.419678 254.501892 C 1268.39563 250.199341 1274.374878 243.019745 1278.707153 238.547089 C 1283.039307 234.074493 1290.030884 227.739838 1294.243896 224.470001 C 1298.457031 221.200226 1305.406982 216.552429 1309.688354 214.141571 C 1313.969971 211.730713 1321.862549 208.224548 1327.227661 206.350098 C 1332.592773 204.475616 1342.755615 201.885803 1349.811523 200.59491 C 1359.236694 198.870483 1366.777588 198.453003 1378.232666 199.021362 C 1387.471802 199.479706 1398.35144 201.017731 1404.934326 202.79599 C 1411.044556 204.446533 1421.521729 208.518921 1428.216797 211.845825 C 1434.912109 215.172607 1444.054199 220.714081 1448.532593 224.160217 C 1453.01123 227.606384 1460.151733 234.180847 1464.400757 238.770203 C 1468.649658 243.359558 1474.707153 251.064667 1477.861816 255.892731 C 1481.016357 260.720764 1485.755371 270.062592 1488.392944 276.652313 C 1491.030396 283.242035 1494.020752 292.668671 1495.038086 297.600311 C 1496.055298 302.531982 1496.887695 314.415833 1496.887695 324.008911 C 1496.887695 335.757874 1496.100464 344.726471 1494.47583 351.48645 C 1493.149414 357.006042 1490.150635 366.078949 1487.811768 371.648468 C 1485.4729 377.218018 1482.988525 382.696899 1482.290894 383.82373 C 1481.593384 384.950562 1480.652222 385.502075 1480.199463 385.049316 C 1479.746704 384.596619 1480.654175 380.98407 1482.216064 377.021423 C 1483.778198 373.058777 1485.994629 364.434296 1487.141846 357.855896 C 1488.28894 351.277527 1489.227539 340.623657 1489.227539 334.180603 C 1489.227539 327.73761 1488.232178 317.635254 1487.015503 311.731049 C 1485.79895 305.826782 1482.973022 296.242126 1480.735474 290.431824 C 1478.498169 284.62149 1473.489258 275.22049 1469.604614 269.54071 C 1465.719971 263.860901 1459.301636 255.896942 1455.341797 251.842987 C 1451.381714 247.789032 1443.536499 241.285004 1437.907715 237.389557 C 1432.278931 233.49411 1422.540405 228.214142 1416.266357 225.65625 C 1409.99231 223.098328 1400.182617 220.201324 1394.467285 219.218475 C 1388.751831 218.235718 1377.494995 217.493286 1369.451904 217.568695 C 1359.428467 217.662628 1351.104004 218.653534 1342.989868 220.718597 C 1336.47876 222.37561 1326.644653 225.869202 1321.136353 228.482117 C 1315.627686 231.095032 1307.480225 235.714783 1303.03064 238.74826 C 1298.580933 241.781708 1291.088623 248.288452 1286.380981 253.207642 C 1281.673584 258.126862 1275.269531 266.100586 1272.150024 270.927124 C 1269.03064 275.753601 1264.518799 284.7836 1262.123901 290.993713 C 1259.728882 297.203888 1256.808472 306.713989 1255.633667 312.127289 C 1254.079346 319.289276 1253.686646 326.699554 1254.191528 339.337677 C 1254.732178 352.871246 1255.729004 359.472961 1258.706787 369.240295 C 1260.808472 376.134369 1262.84314 382.871735 1263.228271 384.212219 C 1263.89209 386.523224 1256.883179 386.632202 1127.974121 386.315063 Z M 184.975693 385.256775 C 184.693222 385.256775 183.313019 383.687286 181.90863 381.769043 C 179.390747 378.329865 178.889648 378.251831 145.929413 376.166321 C 127.545219 375.003113 96.208557 372.821655 76.292381 371.318726 C 56.376213 369.815765 36.763767 368.187653 32.709187 367.700653 C 28.235209 367.163269 25.540154 366.206421 25.853443 365.266541 C 26.137363 364.414795 29.768103 362.713715 33.921757 361.486389 C 38.075413 360.259094 47.651649 357.460876 55.202236 355.268188 C 63.114437 352.97049 69.267014 350.404846 69.72464 349.212341 C 70.161316 348.07431 68.966599 344.280914 67.069687 340.782471 C 65.172775 337.284088 58.132992 326.6745 51.425709 317.205627 C 44.71843 307.736786 39.549248 299.670868 39.938663 299.281494 C 40.328033 298.89209 46.160007 302.877563 52.898571 308.138092 C 59.637089 313.39859 69.709724 321.677856 75.282127 326.536377 C 80.854538 331.394897 88.486984 337.799255 92.243103 340.768311 C 95.999268 343.737427 102.407837 348.27713 106.484436 350.856628 C 110.560989 353.436157 119.223625 357.795288 125.734673 360.543701 C 132.245712 363.292053 145.938339 367.847473 156.162704 370.666748 C 166.819916 373.605469 175.273773 375.271545 175.974106 374.571167 C 176.674423 373.87085 175.770645 369.798431 173.856049 365.027588 C 172.019272 360.4505 169.684845 352.644745 168.668457 347.681488 C 167.652084 342.718262 166.820511 332.377136 166.820511 324.701294 C 166.820511 317.025452 167.603165 306.194214 168.559738 300.631866 C 169.516312 295.06955 172.498199 285.04184 175.186188 278.348022 C 177.874161 271.654205 183.549805 261.042694 187.798752 254.766846 C 192.047699 248.490997 200.883698 238.282928 207.43428 232.082245 C 217.251129 222.789764 222.076324 219.469666 234.888412 213.191559 C 243.630859 208.907654 255.906815 204.207581 262.943359 202.450348 C 272.695984 200.01474 279.445984 199.325958 293.559906 199.325958 C 306.629761 199.325958 314.951172 200.087769 323.478821 202.06485 C 330.781921 203.758087 341.580078 207.904175 351.76178 212.924377 C 366.81781 220.34787 369.461121 222.264496 382.558929 235.254761 C 390.784485 243.41275 399.163605 253.280579 402.233276 258.42453 C 405.174042 263.352509 409.254852 271.500061 411.301727 276.530182 C 413.348663 281.560272 416.21048 290.689728 417.661377 296.81778 C 419.375183 304.05661 420.299286 313.08252 420.299286 322.583496 C 420.299286 330.626526 419.468353 341.281006 418.452698 346.260071 C 417.437134 351.239136 415.053284 359.700012 413.155365 365.062073 C 411.257355 370.424133 409.550262 375.782471 409.361725 376.969604 C 409.173157 378.156677 407.587646 380.559143 405.838379 382.308411 C 404.089111 384.057678 402.458099 385.279999 402.213959 385.024689 C 401.969818 384.769348 403.569916 379.194702 405.769592 372.636597 C 407.969391 366.078552 410.507172 354.707825 411.409088 347.368378 C 412.634705 337.395325 412.658508 330.998169 411.503113 322.047974 C 410.652863 315.461243 408.044525 304.36322 405.706879 297.385712 C 403.36911 290.408173 398.935974 280.383484 395.855255 275.108643 C 392.774628 269.833801 385.019043 260.025818 378.620728 253.31308 C 370.866852 245.178253 363.252777 238.85788 355.7883 234.360199 C 349.628754 230.648834 339.300415 225.789276 332.836426 223.561279 C 326.372406 221.333191 315.840912 218.804688 309.433044 217.942291 C 303.025208 217.079987 292.724792 216.763153 286.543274 217.238251 C 280.361725 217.71344 270.324036 219.371399 264.237244 220.922699 C 258.150513 222.473969 248.663528 225.878387 243.15509 228.488007 C 237.646683 231.097656 229.499146 235.714783 225.049454 238.74826 C 220.599808 241.781708 213.107544 248.288452 208.399948 253.207642 C 203.692398 258.126862 197.288406 266.100586 194.1689 270.927124 C 191.049393 275.753601 186.645645 284.503448 184.382828 290.371155 C 182.119965 296.238892 179.194 306.343018 177.880615 312.824768 C 176.061401 321.80304 175.684067 328.431854 176.296356 340.657715 C 176.738388 349.48407 178.059891 360.152649 179.232986 364.365692 C 180.406113 368.578735 182.293716 375.002747 183.427612 378.641296 C 184.561508 382.279785 185.258179 385.256775 184.975693 385.256775 Z M 1196.287842 166.596558 C 1197.187378 165.773254 1207.476074 162.669525 1219.7323 159.168182 C 1231.988525 155.66687 1253.607544 149.932953 1267.775024 146.426208 C 1281.942383 142.919434 1305.13147 137.92218 1319.306396 135.321075 C 1333.481445 132.719971 1357.456909 128.856018 1372.585571 126.734619 C 1387.714233 124.613129 1400.092163 122.441711 1400.092163 121.909332 C 1400.092163 121.376862 1394.921631 119.566467 1388.602051 117.88623 C 1382.282593 116.206024 1368.024292 112.394592 1356.917236 109.416412 C 1345.810181 106.438293 1320.114014 99.854401 1299.814941 94.785583 C 1279.515747 89.716827 1250.372559 82.78653 1235.05249 79.38501 C 1219.7323 75.983582 1194.976318 70.74823 1180.039185 67.750977 C 1165.102051 64.753754 1141.286255 60.3461 1127.115112 57.956238 C 1112.943848 55.566406 1089.966797 52.103088 1076.05481 50.259949 C 1062.142822 48.416931 1039.893799 45.94928 1026.612549 44.776306 C 1013.331299 43.603394 986.796448 42.236755 967.646301 41.739441 C 946.142395 41.180969 922.934509 41.453064 906.956299 42.450928 C 892.72699 43.339722 872.674316 45.044556 862.394592 46.239746 C 852.114929 47.434875 835.867493 49.890198 826.289063 51.695984 C 816.710754 53.501831 801.979797 56.540894 793.553711 58.449524 C 785.127686 60.358246 770.399414 64.138214 760.824341 66.849487 C 751.249207 69.560852 734.014099 75.2742 722.523987 79.545837 C 711.033875 83.817474 692.858582 91.610748 682.13446 96.864136 C 671.410339 102.117615 658.405701 109.636475 653.235107 113.572693 C 648.064514 117.508911 643.834106 121.367157 643.834106 122.146576 C 643.834106 122.925995 645.898132 124.426117 648.420898 125.480194 C 650.943604 126.534271 659.420227 128.102295 667.257874 128.964752 C 675.095581 129.827148 700.137695 131.107086 722.907166 131.809052 C 745.676636 132.511047 803.947083 133.104553 852.397034 133.128113 C 900.846924 133.15155 940.487854 133.680817 940.487854 134.30423 C 940.487854 134.927582 918.082092 136.513885 890.697388 137.829376 C 863.312622 139.144745 826.492065 140.833649 808.87384 141.582306 C 791.255676 142.331024 748.324524 143.880005 713.47113 145.024628 C 678.617798 146.16922 618.138062 148.037323 579.071716 149.175812 C 540.00531 150.314392 495.820587 151.884277 480.883484 152.664642 C 465.946381 153.444916 444.324066 154.732056 432.833954 155.524994 C 421.343842 156.317932 400.348267 157.920746 386.177124 159.086761 C 372.006012 160.252777 348.816864 162.755127 334.645752 164.64743 C 320.474609 166.539764 299.72641 169.606873 288.538635 171.463226 C 277.350891 173.31958 257.92215 177.115723 245.363678 179.898987 C 232.805252 182.682251 212.240051 188.077179 199.663315 191.887665 C 187.086578 195.698151 167.971207 202.141266 157.184723 206.20575 C 146.398254 210.270142 129.112045 217.357025 118.770966 221.954224 C 108.429886 226.551483 90.172272 235.108734 78.198563 240.970276 C 66.224808 246.831818 51.496563 253.406494 45.469162 255.580658 C 39.441715 257.754791 31.81267 259.876617 28.515772 260.295837 C 24.38273 260.82132 22.684797 260.567749 23.047667 259.479126 C 23.337133 258.610748 28.846552 254.244934 35.290867 249.777252 C 41.735138 245.30957 54.237331 237.331451 63.073505 232.048065 C 71.909683 226.764679 89.466553 217.426117 102.088768 211.295746 C 114.711037 205.165283 133.185837 196.912872 143.143921 192.957031 C 153.102005 189.00119 169.465607 183.073883 179.507507 179.785339 C 189.549362 176.496796 207.41124 171.285645 219.200607 168.205109 C 230.989944 165.124481 251.916962 160.418549 265.705078 157.747406 C 279.493195 155.076263 302.368988 151.280487 316.5401 149.312317 C 330.711243 147.344177 353.273651 144.501495 366.678772 142.995361 C 380.083893 141.489136 403.586395 139.308044 418.906525 138.148376 C 434.226685 136.988739 457.729187 135.387054 471.134308 134.589111 C 484.539429 133.791138 503.341431 132.483246 512.916504 131.682739 C 522.491638 130.882141 534.561279 129.271271 539.737976 128.102966 C 544.914673 126.934631 556.195923 123.26297 564.807312 119.943817 C 573.418701 116.624664 587.985291 110.821625 597.177307 107.048309 C 606.369385 103.274872 624.858032 95.617615 638.263184 90.032043 C 651.668274 84.446442 672.037109 76.421021 683.527222 72.197815 C 695.017334 67.97464 712.252502 62.0271 721.827576 58.98114 C 731.40271 55.935242 748.324524 51.059937 759.43158 48.147217 C 770.538635 45.234558 789.027344 40.968079 800.517456 38.666138 C 812.007507 36.364197 829.869446 33.216492 840.21051 31.671265 C 850.551636 30.125977 868.10022 28.045288 879.207275 27.047607 C 891.442383 25.948486 919.987244 25.233398 951.629761 25.233398 C 989.602661 25.233398 1011.84021 25.905212 1033.105103 27.694641 C 1049.191162 29.048401 1072.693726 31.428894 1085.332886 32.984558 C 1097.972046 34.540344 1118.340698 37.333496 1130.596924 39.191711 C 1142.853149 41.049866 1163.535278 44.422607 1176.557373 46.686646 C 1189.579468 48.950684 1213.081909 53.296875 1228.785156 56.344666 C 1244.488281 59.392578 1274.571411 65.75351 1295.636719 70.480011 C 1316.701904 75.206543 1353.521118 83.730011 1377.457275 89.421021 C 1401.393311 95.112091 1436.803833 103.586761 1456.147095 108.253784 C 1475.490479 112.920776 1503.224731 119.387268 1517.778809 122.62381 C 1532.332886 125.860321 1567.586548 133.469299 1596.120361 139.532623 C 1624.654297 145.595947 1648 151.07724 1648 151.713257 C 1648 152.349274 1644.709595 152.480347 1640.68811 152.004639 C 1636.666626 151.528961 1618.02124 149.926086 1599.254028 148.442719 C 1580.486938 146.95929 1551.030396 144.979401 1533.795288 144.042877 C 1516.560059 143.106384 1484.596802 142.334442 1462.765503 142.327454 C 1440.934204 142.320587 1409.380005 143.104919 1392.644775 144.070679 C 1375.909424 145.036346 1352.093628 146.766907 1339.720703 147.91626 C 1327.347534 149.065643 1307.196533 151.260254 1294.940308 152.792999 C 1282.684082 154.325836 1262.001953 157.133392 1248.979858 159.032104 C 1235.957764 160.930725 1219.035889 163.656006 1211.375854 165.088287 C 1203.71582 166.520447 1197.187378 167.44574 1196.868164 167.144409 L 1196.287842 166.596558 Z"/>
</svg>
