<?xml version="1.0" encoding="UTF-8"?>
<!-- Generated by Pixelmator Pro 3.8 -->
<svg width="1672" height="571" viewBox="0 0 1672 571" xmlns="http://www.w3.org/2000/svg">
    <path id="Shape" fill="#cbd5e1" fill-rule="evenodd" stroke="none" visibility="hidden" d="M 1150.187622 546.650879 C 1144.77478 546.560791 1137.377563 545.987183 1133.749268 545.376282 C 1130.12085 544.76532 1124.052979 543.236023 1120.265137 541.977844 C 1116.477051 540.719666 1110.532104 537.517395 1107.053955 534.861694 C 1103.575806 532.205994 1099.05896 527.181396 1097.016357 523.695923 C 1094.321655 519.097839 1093.116821 514.762939 1092.625732 507.900024 C 1092.150391 501.256927 1092.636475 496.371368 1094.258667 491.487335 C 1095.529053 487.662628 1098.753052 481.981018 1101.42334 478.861542 C 1104.093384 475.742065 1110.004883 471.327545 1114.559692 469.051422 C 1119.114624 466.775299 1127.204834 464.133209 1132.537964 463.180115 C 1138.556763 462.104553 1147.687622 461.74762 1156.610474 462.239105 C 1165.443115 462.725647 1173.940063 464.078552 1178.646484 465.747803 C 1182.859497 467.242004 1188.656738 469.860168 1191.529297 471.565948 C 1194.401855 473.271729 1196.752075 475.749634 1196.752075 477.072479 C 1196.752075 478.395294 1195.299683 480.842041 1193.524536 482.509674 C 1190.297119 485.541718 1190.297119 485.541718 1182.695679 481.424561 C 1178.315918 479.052429 1170.843872 476.605499 1165.066284 475.651337 C 1159.550903 474.740509 1149.801025 474.322021 1143.399902 474.721375 C 1135.820557 475.194214 1129.372681 476.503815 1124.911865 478.476349 C 1121.144531 480.142273 1116.261475 483.195129 1114.060669 485.26062 C 1111.859863 487.32605 1109.196289 491.032715 1108.141479 493.49765 C 1107.086914 495.962524 1106.234375 500.97641 1106.246948 504.639587 C 1106.261719 508.937012 1107.377441 513.255615 1109.392334 516.812866 C 1111.109741 519.845032 1115.016479 524.059937 1118.074097 526.17926 C 1121.131714 528.298584 1127.36853 530.988281 1131.934082 532.156311 C 1136.499512 533.324341 1145.29895 534.280029 1151.488037 534.280029 C 1157.677124 534.280029 1166.42627 533.320129 1170.930664 532.146912 C 1175.434814 530.973694 1181.46936 528.693481 1184.340698 527.079773 C 1187.211792 525.466003 1190.515869 524.511963 1191.682617 524.959717 C 1192.849609 525.407532 1194.896729 527.44104 1196.231812 529.47876 C 1198.600586 533.094116 1198.577393 533.245911 1195.268433 535.764465 C 1193.40332 537.184021 1188.430542 539.600891 1184.217407 541.135376 C 1180.004395 542.669861 1172.838501 544.575439 1168.293213 545.369995 C 1163.748169 546.164612 1155.600586 546.740967 1150.187622 546.650879 Z M 134.787491 543.332825 L 134.787491 463.946625 L 170.302368 463.985138 C 199.922195 464.017273 207.13118 464.423828 213.732971 466.434448 C 218.086609 467.760376 224.347443 470.903625 227.645935 473.419464 C 231.362564 476.254242 235.224731 481.086304 237.802338 486.126404 C 241.347 493.057434 241.948303 495.771576 241.871658 504.494995 C 241.796692 513.033142 241.091263 516.063293 237.618515 522.764526 C 234.669434 528.455261 231.506363 532.121765 226.772583 535.33667 C 223.097122 537.832886 216.87854 540.776306 212.953552 541.877563 C 208.783707 543.047485 197.712036 544.055542 186.318878 544.302673 C 175.594757 544.535278 159.613098 544.412231 150.804001 544.029236 L 134.787491 543.332825 Z M 515.005615 543.332825 L 515.005615 463.946625 L 560.269714 463.946625 C 605.533752 463.946625 605.533752 463.946625 605.533752 469.517578 C 605.533752 475.088562 605.533752 475.088562 566.537048 475.784912 L 527.540283 476.481293 L 527.540283 486.230469 L 527.540283 495.979675 L 563.751526 496.676025 C 599.96283 497.372406 599.96283 497.372406 599.96283 502.943359 C 599.96283 508.514343 599.96283 508.514343 563.751526 509.210693 L 527.540283 509.907074 L 527.540283 521.049011 L 527.540283 532.190918 L 567.233398 532.887268 C 606.926514 533.583679 606.926514 533.583679 606.926514 538.458252 C 606.926514 543.332825 606.926514 543.332825 593.695496 543.61377 C 586.418457 543.768311 571.690186 544.082703 560.966064 544.312561 C 550.241943 544.542419 535.513672 544.415955 528.236694 544.031616 L 515.005615 543.332825 Z M 692.047485 545.157593 C 685.724304 545.559387 685.301453 545.383667 686.016052 542.651001 C 686.438782 541.03479 694.36084 528.152344 703.620728 514.023315 C 712.880615 499.894348 724.055664 482.847076 728.454163 476.140472 C 736.451355 463.946625 736.451355 463.946625 743.462524 463.536102 C 750.473694 463.125549 750.473694 463.125549 761.744202 480.248962 C 767.942993 489.66687 779.138733 506.773407 786.623657 518.263489 C 794.108643 529.753601 800.52655 540.251404 800.885681 541.591919 C 801.442871 543.671814 800.532043 544.029236 794.673279 544.029236 C 787.807739 544.029236 787.807739 544.029236 778.842468 530.090271 C 773.911499 522.423828 764.676208 508.16568 758.319458 498.405457 C 751.962708 488.645172 745.908875 479.798615 744.866455 478.746399 C 743.263733 477.128571 741.715637 478.788239 734.83667 489.499023 C 730.362732 496.465149 720.434875 511.740906 712.77478 523.445129 C 698.847351 544.725586 698.847351 544.725586 692.047485 545.157593 Z M 325.592926 463.946625 C 405.664886 463.946625 406.489258 464.004425 413.079285 467.249023 C 417.106201 469.231689 421.082703 472.571167 423.029602 475.605469 C 424.813202 478.385193 426.67865 483.000488 427.175171 485.861694 C 427.6716 488.722809 427.398071 493.588257 426.5672 496.673706 C 425.73645 499.759125 423.194855 504.404022 420.919312 506.995728 C 418.643799 509.587433 414.219971 512.733032 411.088623 513.985962 C 405.868988 516.074463 405.551727 516.487122 407.276245 518.945862 C 408.310852 520.420898 413.23111 526.141602 418.210175 531.658447 C 423.18924 537.175415 427.471924 542.215759 427.727203 542.859253 C 427.982544 543.502747 424.521118 544.029236 420.035004 544.029236 C 411.878571 544.029236 411.878571 544.029236 399.587097 530.070251 C 387.295685 516.111267 387.295685 516.111267 362.711609 516.491028 L 338.127594 516.870789 L 337.431213 530.101807 C 336.734863 543.332825 336.734863 543.332825 331.500885 543.765747 C 328.108765 544.046326 326.0177 543.549255 325.558746 542.353271 C 325.16925 541.338257 325.017609 523.281555 325.221741 502.227234 L 325.592926 463.946625 Z M 891.382507 543.765747 C 887.971741 544.047913 885.950195 543.562744 885.579041 542.373047 C 885.265747 541.368896 884.626221 524.024658 884.157837 503.830139 C 883.537415 477.076385 883.741211 466.588867 884.909119 465.18161 C 885.825684 464.077271 889.103088 463.250244 892.562744 463.250244 C 898.463196 463.250244 898.848328 463.53894 908.060547 474.866058 C 913.25647 481.25473 923.389893 493.476013 930.579285 502.024475 C 937.768677 510.572968 944.072327 517.567139 944.58728 517.567139 C 945.102295 517.567139 955.828491 505.325073 968.423218 490.362579 C 991.322876 463.15802 991.322876 463.15802 998.28656 463.552338 C 1005.250305 463.946625 1005.250305 463.946625 1005.250305 503.63974 C 1005.250305 543.332825 1005.250305 543.332825 998.982971 543.332825 C 992.715637 543.332825 992.715637 543.332825 992.339478 513.630371 C 992.120544 496.350891 991.42804 484.118164 990.683594 484.382813 C 989.979858 484.633057 979.59137 496.309998 967.598083 510.331665 C 955.604736 524.353333 944.989075 535.634583 944.00769 535.401001 C 943.026367 535.16748 938.950684 531.112793 934.950623 526.390564 C 930.950562 521.668335 921.362915 510.387146 913.644775 501.321228 C 905.926636 492.25528 899.107117 484.633057 898.490295 484.382813 C 897.873596 484.132629 897.199646 497.294037 896.992676 513.630371 C 896.616516 543.332825 896.616516 543.332825 891.382507 543.765747 Z M 1280.02124 544.029236 C 1274.043701 544.029236 1273.121582 543.675171 1273.672729 541.591919 C 1274.027466 540.251404 1285.440552 522.076111 1299.035156 501.202454 C 1323.752563 463.250244 1323.752563 463.250244 1331.037598 463.250244 C 1338.322632 463.250244 1338.322632 463.250244 1362.855957 501.21756 C 1376.349365 522.099609 1387.807617 540.274841 1388.318848 541.607056 C 1389.127563 543.714661 1388.317871 544.029236 1382.083984 544.029236 C 1374.9198 544.029236 1374.9198 544.029236 1361.97644 524.182678 C 1354.857544 513.26709 1345.32312 498.426453 1340.788696 491.203461 C 1336.254272 483.980499 1331.917603 477.87262 1331.151489 477.630371 C 1330.385498 477.388092 1320.141357 492.228729 1308.386597 510.609558 C 1287.014282 544.029236 1287.014282 544.029236 1280.02124 544.029236 Z M 1469.032837 463.946625 C 1549.894775 463.946625 1549.894775 463.946625 1556.817017 467.511078 C 1560.624268 469.471497 1565.063721 473.040894 1566.682617 475.443024 C 1568.301636 477.845184 1570.038696 482.390869 1570.543091 485.544556 C 1571.047363 488.698242 1570.803101 493.717957 1570.000244 496.699463 C 1569.197388 499.680908 1566.984863 503.969177 1565.083496 506.228821 C 1563.182129 508.488495 1558.813721 511.493958 1555.376099 512.907654 C 1551.938477 514.32135 1549.123535 515.872559 1549.120728 516.354675 C 1549.117798 516.836853 1553.972656 522.758423 1559.90918 529.513733 C 1565.845703 536.269043 1570.911865 542.298584 1571.167236 542.912659 C 1571.422607 543.526794 1567.975342 544.018188 1563.50708 544.004822 C 1555.382813 543.980347 1555.382813 543.980347 1543.025757 530.045227 C 1530.668579 516.110107 1530.668579 516.110107 1506.814453 516.490417 L 1482.960205 516.870789 L 1482.263916 530.101807 C 1481.567505 543.332825 1481.567505 543.332825 1475.63562 543.761719 C 1471.676392 544.047974 1469.46875 543.578247 1468.997192 542.349243 C 1468.608521 541.336487 1468.45752 523.281555 1468.661743 502.227234 L 1469.032837 463.946625 Z M 147.322144 476.481293 C 146.733093 517.43103 146.894775 530.186646 147.301361 531.246277 C 147.908813 532.829163 153.070053 533.055969 176.232605 532.517395 C 194.778229 532.086243 206.30603 531.213623 209.92334 529.967102 C 212.947739 528.924927 217.730652 525.865295 220.552078 523.167908 C 224.458969 519.432739 226.101913 516.373413 227.443314 510.335876 C 228.867004 503.927979 228.863815 501.19101 227.426743 496.05835 C 226.251999 491.862518 223.850021 488.083221 220.346069 484.917664 C 217.429504 482.282715 212.340668 479.30661 209.037491 478.304077 C 204.948868 477.063171 194.140167 476.481293 175.176956 476.481293 L 147.322144 476.481293 Z M 338.127594 476.481293 C 337.494812 494.650208 337.631805 500.760834 338.023804 501.78241 C 338.58963 503.256958 345.418701 503.638672 371.161499 503.634552 C 400.844513 503.629761 403.962799 503.399841 408.037231 500.915466 C 411.168945 499.00592 412.756165 496.7724 413.392792 493.379059 C 413.950165 490.408081 413.578094 487.040527 412.423798 484.608002 C 411.39328 482.43634 408.282288 479.550537 405.51059 478.195099 C 401.068085 476.022614 396.778503 475.775116 369.299347 476.105988 L 338.127594 476.481293 Z M 1482.960205 476.481293 C 1482.327515 494.650208 1482.464478 500.760834 1482.856567 501.78241 C 1483.421387 503.254486 1490.092651 503.63974 1515.018799 503.63974 C 1539.960938 503.63974 1547.287231 503.216248 1550.426392 501.592957 C 1552.603271 500.467224 1555.057129 497.616028 1555.879517 495.257019 C 1556.701904 492.89798 1557.013672 489.162476 1556.572388 486.955811 C 1556.130981 484.749146 1554.223267 481.489685 1552.332886 479.712524 C 1548.937378 476.520508 1548.495605 476.481293 1515.927979 476.481293 L 1482.960205 476.481293 Z M 1127.974121 386.315063 C 1053.199341 386.131104 962.093201 385.842468 925.516235 385.673706 C 888.939209 385.504883 758.735229 384.654022 636.174072 383.782837 C 513.612915 382.911652 413.040344 381.91272 412.679504 381.562988 C 412.318726 381.213257 412.830994 380.42807 413.817902 379.818146 C 414.80481 379.208191 422.934204 378.303253 431.883148 377.80719 C 440.832184 377.311157 486.542694 375.690125 533.462158 374.204956 C 580.381531 372.719757 643.681641 370.829681 674.128967 370.004761 C 704.576294 369.17981 757.063904 367.892212 790.76825 367.143372 C 824.472595 366.394592 894.039978 365.101501 945.362427 364.269928 C 996.684875 363.438354 1067.505737 362.649658 1102.742065 362.517273 C 1143.668701 362.363495 1173.349365 362.882202 1184.918945 363.953308 C 1195.086426 364.894653 1210.083252 367.44873 1219.111938 369.776672 C 1227.957031 372.057312 1240.098755 375.871643 1246.093384 378.252991 C 1252.088013 380.634338 1257.318237 382.257263 1257.715942 381.859558 C 1258.113647 381.461853 1256.821533 377.519714 1254.844482 373.099243 C 1252.86731 368.678833 1249.901001 360.361572 1248.252319 354.616516 C 1246.286133 347.764343 1244.996094 338.392059 1244.502197 327.372314 C 1243.831909 312.412415 1244.142822 309.009979 1247.343994 296.288116 C 1249.321045 288.43103 1252.97937 277.574982 1255.473633 272.163574 C 1257.968018 266.752167 1262.443604 258.804382 1265.419678 254.501892 C 1268.39563 250.199341 1274.374878 243.019745 1278.707153 238.547089 C 1283.039307 234.074493 1290.030884 227.739838 1294.243896 224.470001 C 1298.457031 221.200226 1305.406982 216.552429 1309.688354 214.141571 C 1313.969971 211.730713 1321.862549 208.224548 1327.227661 206.350098 C 1332.592773 204.475616 1342.755615 201.885803 1349.811523 200.59491 C 1359.236694 198.870483 1366.777588 198.453003 1378.232666 199.021362 C 1387.471802 199.479706 1398.35144 201.017731 1404.934326 202.79599 C 1411.044556 204.446533 1421.521729 208.518921 1428.216797 211.845825 C 1434.912109 215.172607 1444.054199 220.714081 1448.532593 224.160217 C 1453.01123 227.606384 1460.151733 234.180847 1464.400757 238.770203 C 1468.649658 243.359558 1474.707153 251.064667 1477.861816 255.892731 C 1481.016357 260.720764 1485.755371 270.062592 1488.392944 276.652313 C 1491.030396 283.242035 1494.020752 292.668671 1495.038086 297.600311 C 1496.055298 302.531982 1496.887695 314.415833 1496.887695 324.008911 C 1496.887695 335.757874 1496.100464 344.726471 1494.47583 351.48645 C 1493.149414 357.006042 1490.150635 366.078949 1487.811768 371.648468 C 1485.4729 377.218018 1482.988525 382.696899 1482.290894 383.82373 C 1481.593384 384.950562 1480.652222 385.502075 1480.199463 385.049316 C 1479.746704 384.596619 1480.654175 380.98407 1482.216064 377.021423 C 1483.778198 373.058777 1485.994629 364.434296 1487.141846 357.855896 C 1488.28894 351.277527 1489.227539 340.623657 1489.227539 334.180603 C 1489.227539 327.73761 1488.232178 317.635254 1487.015503 311.731049 C 1485.79895 305.826782 1482.973022 296.242126 1480.735474 290.431824 C 1478.498169 284.62149 1473.489258 275.22049 1469.604614 269.54071 C 1465.719971 263.860901 1459.301636 255.896942 1455.341797 251.842987 C 1451.381714 247.789032 1443.536499 241.285004 1437.907715 237.389557 C 1432.278931 233.49411 1422.540405 228.214142 1416.266357 225.65625 C 1409.99231 223.098328 1400.182617 220.201324 1394.467285 219.218475 C 1388.751831 218.235718 1377.494995 217.493286 1369.451904 217.568695 C 1359.428467 217.662628 1351.104004 218.653534 1342.989868 220.718597 C 1336.47876 222.37561 1326.644653 225.869202 1321.136353 228.482117 C 1315.627686 231.095032 1307.480225 235.714783 1303.03064 238.74826 C 1298.580933 241.781708 1291.088623 248.288452 1286.380981 253.207642 C 1281.673584 258.126862 1275.269531 266.100586 1272.150024 270.927124 C 1269.03064 275.753601 1264.518799 284.7836 1262.123901 290.993713 C 1259.728882 297.203888 1256.808472 306.713989 1255.633667 312.127289 C 1254.079346 319.289276 1253.686646 326.699554 1254.191528 339.337677 C 1254.732178 352.871246 1255.729004 359.472961 1258.706787 369.240295 C 1260.808472 376.134369 1262.84314 382.871735 1263.228271 384.212219 C 1263.89209 386.523224 1256.883179 386.632202 1127.974121 386.315063 Z M 184.975693 385.256775 C 184.693222 385.256775 183.313019 383.687286 181.90863 381.769043 C 179.390747 378.329865 178.889648 378.251831 145.929413 376.166321 C 127.545219 375.003113 96.208557 372.821655 76.292381 371.318726 C 56.376213 369.815765 36.763767 368.187653 32.709187 367.700653 C 28.235209 367.163269 25.540154 366.206421 25.853443 365.266541 C 26.137363 364.414795 29.768103 362.713715 33.921757 361.486389 C 38.075413 360.259094 47.651649 357.460876 55.202236 355.268188 C 63.114437 352.97049 69.267014 350.404846 69.72464 349.212341 C 70.161316 348.07431 68.966599 344.280914 67.069687 340.782471 C 65.172775 337.284088 58.132992 326.6745 51.425709 317.205627 C 44.71843 307.736786 39.549248 299.670868 39.938663 299.281494 C 40.328033 298.89209 46.160007 302.877563 52.898571 308.138092 C 59.637089 313.39859 69.709724 321.677856 75.282127 326.536377 C 80.854538 331.394897 88.486984 337.799255 92.243103 340.768311 C 95.999268 343.737427 102.407837 348.27713 106.484436 350.856628 C 110.560989 353.436157 119.223625 357.795288 125.734673 360.543701 C 132.245712 363.292053 145.938339 367.847473 156.162704 370.666748 C 166.819916 373.605469 175.273773 375.271545 175.974106 374.571167 C 176.674423 373.87085 175.770645 369.798431 173.856049 365.027588 C 172.019272 360.4505 169.684845 352.644745 168.668457 347.681488 C 167.652084 342.718262 166.820511 332.377136 166.820511 324.701294 C 166.820511 317.025452 167.603165 306.194214 168.559738 300.631866 C 169.516312 295.06955 172.498199 285.04184 175.186188 278.348022 C 177.874161 271.654205 183.549805 261.042694 187.798752 254.766846 C 192.047699 248.490997 200.883698 238.282928 207.43428 232.082245 C 217.251129 222.789764 222.076324 219.469666 234.888412 213.191559 C 243.630859 208.907654 255.906815 204.207581 262.943359 202.450348 C 272.695984 200.01474 279.445984 199.325958 293.559906 199.325958 C 306.629761 199.325958 314.951172 200.087769 323.478821 202.06485 C 330.781921 203.758087 341.580078 207.904175 351.76178 212.924377 C 366.81781 220.34787 369.461121 222.264496 382.558929 235.254761 C 390.784485 243.41275 399.163605 253.280579 402.233276 258.42453 C 405.174042 263.352509 409.254852 271.500061 411.301727 276.530182 C 413.348663 281.560272 416.21048 290.689728 417.661377 296.81778 C 419.375183 304.05661 420.299286 313.08252 420.299286 322.583496 C 420.299286 330.626526 419.468353 341.281006 418.452698 346.260071 C 417.437134 351.239136 415.053284 359.700012 413.155365 365.062073 C 411.257355 370.424133 409.550262 375.782471 409.361725 376.969604 C 409.173157 378.156677 407.587646 380.559143 405.838379 382.308411 C 404.089111 384.057678 402.458099 385.279999 402.213959 385.024689 C 401.969818 384.769348 403.569916 379.194702 405.769592 372.636597 C 407.969391 366.078552 410.507172 354.707825 411.409088 347.368378 C 412.634705 337.395325 412.658508 330.998169 411.503113 322.047974 C 410.652863 315.461243 408.044525 304.36322 405.706879 297.385712 C 403.36911 290.408173 398.935974 280.383484 395.855255 275.108643 C 392.774628 269.833801 385.019043 260.025818 378.620728 253.31308 C 370.866852 245.178253 363.252777 238.85788 355.7883 234.360199 C 349.628754 230.648834 339.300415 225.789276 332.836426 223.561279 C 326.372406 221.333191 315.840912 218.804688 309.433044 217.942291 C 303.025208 217.079987 292.724792 216.763153 286.543274 217.238251 C 280.361725 217.71344 270.324036 219.371399 264.237244 220.922699 C 258.150513 222.473969 248.663528 225.878387 243.15509 228.488007 C 237.646683 231.097656 229.499146 235.714783 225.049454 238.74826 C 220.599808 241.781708 213.107544 248.288452 208.399948 253.207642 C 203.692398 258.126862 197.288406 266.100586 194.1689 270.927124 C 191.049393 275.753601 186.645645 284.503448 184.382828 290.371155 C 182.119965 296.238892 179.194 306.343018 177.880615 312.824768 C 176.061401 321.80304 175.684067 328.431854 176.296356 340.657715 C 176.738388 349.48407 178.059891 360.152649 179.232986 364.365692 C 180.406113 368.578735 182.293716 375.002747 183.427612 378.641296 C 184.561508 382.279785 185.258179 385.256775 184.975693 385.256775 Z M 1196.287842 166.596558 C 1197.187378 165.773254 1207.476074 162.669525 1219.7323 159.168182 C 1231.988525 155.66687 1253.607544 149.932953 1267.775024 146.426208 C 1281.942383 142.919434 1305.13147 137.92218 1319.306396 135.321075 C 1333.481445 132.719971 1357.456909 128.856018 1372.585571 126.734619 C 1387.714233 124.613129 1400.092163 122.441711 1400.092163 121.909332 C 1400.092163 121.376862 1394.921631 119.566467 1388.602051 117.88623 C 1382.282593 116.206024 1368.024292 112.394592 1356.917236 109.416412 C 1345.810181 106.438293 1320.114014 99.854401 1299.814941 94.785583 C 1279.515747 89.716827 1250.372559 82.78653 1235.05249 79.38501 C 1219.7323 75.983582 1194.976318 70.74823 1180.039185 67.750977 C 1165.102051 64.753754 1141.286255 60.3461 1127.115112 57.956238 C 1112.943848 55.566406 1089.966797 52.103088 1076.05481 50.259949 C 1062.142822 48.416931 1039.893799 45.94928 1026.612549 44.776306 C 1013.331299 43.603394 986.796448 42.236755 967.646301 41.739441 C 946.142395 41.180969 922.934509 41.453064 906.956299 42.450928 C 892.72699 43.339722 872.674316 45.044556 862.394592 46.239746 C 852.114929 47.434875 835.867493 49.890198 826.289063 51.695984 C 816.710754 53.501831 801.979797 56.540894 793.553711 58.449524 C 785.127686 60.358246 770.399414 64.138214 760.824341 66.849487 C 751.249207 69.560852 734.014099 75.2742 722.523987 79.545837 C 711.033875 83.817474 692.858582 91.610748 682.13446 96.864136 C 671.410339 102.117615 658.405701 109.636475 653.235107 113.572693 C 648.064514 117.508911 643.834106 121.367157 643.834106 122.146576 C 643.834106 122.925995 645.898132 124.426117 648.420898 125.480194 C 650.943604 126.534271 659.420227 128.102295 667.257874 128.964752 C 675.095581 129.827148 700.137695 131.107086 722.907166 131.809052 C 745.676636 132.511047 803.947083 133.104553 852.397034 133.128113 C 900.846924 133.15155 940.487854 133.680817 940.487854 134.30423 C 940.487854 134.927582 918.082092 136.513885 890.697388 137.829376 C 863.312622 139.144745 826.492065 140.833649 808.87384 141.582306 C 791.255676 142.331024 748.324524 143.880005 713.47113 145.024628 C 678.617798 146.16922 618.138062 148.037323 579.071716 149.175812 C 540.00531 150.314392 495.820587 151.884277 480.883484 152.664642 C 465.946381 153.444916 444.324066 154.732056 432.833954 155.524994 C 421.343842 156.317932 400.348267 157.920746 386.177124 159.086761 C 372.006012 160.252777 348.816864 162.755127 334.645752 164.64743 C 320.474609 166.539764 299.72641 169.606873 288.538635 171.463226 C 277.350891 173.31958 257.92215 177.115723 245.363678 179.898987 C 232.805252 182.682251 212.240051 188.077179 199.663315 191.887665 C 187.086578 195.698151 167.971207 202.141266 157.184723 206.20575 C 146.398254 210.270142 129.112045 217.357025 118.770966 221.954224 C 108.429886 226.551483 90.172272 235.108734 78.198563 240.970276 C 66.224808 246.831818 51.496563 253.406494 45.469162 255.580658 C 39.441715 257.754791 31.81267 259.876617 28.515772 260.295837 C 24.38273 260.82132 22.684797 260.567749 23.047667 259.479126 C 23.337133 258.610748 28.846552 254.244934 35.290867 249.777252 C 41.735138 245.30957 54.237331 237.331451 63.073505 232.048065 C 71.909683 226.764679 89.466553 217.426117 102.088768 211.295746 C 114.711037 205.165283 133.185837 196.912872 143.143921 192.957031 C 153.102005 189.00119 169.465607 183.073883 179.507507 179.785339 C 189.549362 176.496796 207.41124 171.285645 219.200607 168.205109 C 230.989944 165.124481 251.916962 160.418549 265.705078 157.747406 C 279.493195 155.076263 302.368988 151.280487 316.5401 149.312317 C 330.711243 147.344177 353.273651 144.501495 366.678772 142.995361 C 380.083893 141.489136 403.586395 139.308044 418.906525 138.148376 C 434.226685 136.988739 457.729187 135.387054 471.134308 134.589111 C 484.539429 133.791138 503.341431 132.483246 512.916504 131.682739 C 522.491638 130.882141 534.561279 129.271271 539.737976 128.102966 C 544.914673 126.934631 556.195923 123.26297 564.807312 119.943817 C 573.418701 116.624664 587.985291 110.821625 597.177307 107.048309 C 606.369385 103.274872 624.858032 95.617615 638.263184 90.032043 C 651.668274 84.446442 672.037109 76.421021 683.527222 72.197815 C 695.017334 67.97464 712.252502 62.0271 721.827576 58.98114 C 731.40271 55.935242 748.324524 51.059937 759.43158 48.147217 C 770.538635 45.234558 789.027344 40.968079 800.517456 38.666138 C 812.007507 36.364197 829.869446 33.216492 840.21051 31.671265 C 850.551636 30.125977 868.10022 28.045288 879.207275 27.047607 C 891.442383 25.948486 919.987244 25.233398 951.629761 25.233398 C 989.602661 25.233398 1011.84021 25.905212 1033.105103 27.694641 C 1049.191162 29.048401 1072.693726 31.428894 1085.332886 32.984558 C 1097.972046 34.540344 1118.340698 37.333496 1130.596924 39.191711 C 1142.853149 41.049866 1163.535278 44.422607 1176.557373 46.686646 C 1189.579468 48.950684 1213.081909 53.296875 1228.785156 56.344666 C 1244.488281 59.392578 1274.571411 65.75351 1295.636719 70.480011 C 1316.701904 75.206543 1353.521118 83.730011 1377.457275 89.421021 C 1401.393311 95.112091 1436.803833 103.586761 1456.147095 108.253784 C 1475.490479 112.920776 1503.224731 119.387268 1517.778809 122.62381 C 1532.332886 125.860321 1567.586548 133.469299 1596.120361 139.532623 C 1624.654297 145.595947 1648 151.07724 1648 151.713257 C 1648 152.349274 1644.709595 152.480347 1640.68811 152.004639 C 1636.666626 151.528961 1618.02124 149.926086 1599.254028 148.442719 C 1580.486938 146.95929 1551.030396 144.979401 1533.795288 144.042877 C 1516.560059 143.106384 1484.596802 142.334442 1462.765503 142.327454 C 1440.934204 142.320587 1409.380005 143.104919 1392.644775 144.070679 C 1375.909424 145.036346 1352.093628 146.766907 1339.720703 147.91626 C 1327.347534 149.065643 1307.196533 151.260254 1294.940308 152.792999 C 1282.684082 154.325836 1262.001953 157.133392 1248.979858 159.032104 C 1235.957764 160.930725 1219.035889 163.656006 1211.375854 165.088287 C 1203.71582 166.520447 1197.187378 167.44574 1196.868164 167.144409 L 1196.287842 166.596558 Z"/>
    <path id="path1" fill="#ffffff" fill-rule="evenodd" stroke="none" d="M 1160.189697 546.843384 C 1154.352417 547.218811 1147.05481 546.895752 1143.9729 546.125488 C 1140.890869 545.355164 1135.690796 543.155273 1132.416992 541.236755 C 1129.143433 539.318237 1124.258057 535.170288 1121.560547 532.018982 C 1118.863281 528.867737 1115.859253 523.442505 1114.88501 519.962952 C 1113.834595 516.211182 1113.402588 509.601471 1113.82312 503.72168 C 1114.371826 496.052917 1115.463379 492.30127 1118.641479 487.160889 C 1120.901245 483.505646 1125.471069 478.439728 1128.796509 475.90332 C 1132.121948 473.366913 1138.114258 470.32016 1142.112671 469.132751 C 1146.111084 467.945343 1153.56543 467.003571 1158.677612 467.039886 C 1163.789917 467.076233 1172.111938 467.875641 1177.170776 468.816406 C 1186.368896 470.526886 1186.368896 470.526886 1187.285034 479.717346 C 1187.788696 484.772095 1187.681274 489.461182 1187.045898 490.137512 C 1186.410522 490.813812 1184.583374 488.804443 1182.985352 485.672211 C 1181.387451 482.539978 1178.387085 478.645599 1176.317993 477.018066 C 1174.248901 475.390533 1169.9375 473.35379 1166.736938 472.491974 C 1163.536377 471.630157 1157.903931 471.21463 1154.220581 471.568542 C 1150.222534 471.952728 1145.239258 473.723572 1141.856079 475.962463 C 1138.732788 478.029419 1134.788452 482.411713 1133.068726 485.725433 C 1130.721069 490.249695 1129.81189 494.890564 1129.396118 504.473877 C 1128.88562 516.241394 1129.147583 517.801392 1132.842163 524.991272 C 1135.15271 529.487976 1138.872192 534.118774 1141.65332 535.961304 C 1144.300415 537.714966 1149.076416 539.853821 1152.266602 540.714417 C 1155.456909 541.575012 1161.172363 541.912476 1164.967651 541.464417 C 1168.763184 541.016357 1173.392456 539.651184 1175.255249 538.430664 C 1177.11792 537.210083 1180.579834 533.528076 1182.94812 530.248352 C 1185.31665 526.968628 1187.920044 524.050049 1188.733398 523.762573 C 1189.712402 523.416626 1189.873291 525.330872 1189.209717 529.422913 C 1188.658081 532.823608 1187.474976 537.160278 1186.580322 539.059998 C 1185.410522 541.544006 1182.966797 543.026062 1177.878418 544.337341 C 1173.986816 545.34021 1166.026978 546.467896 1160.189697 546.843384 Z M 121.686028 545.903809 C 102.276085 546.40332 95.822952 546.15509 96.23304 544.924744 C 96.535248 544.018188 98.366005 542.489075 100.301437 541.526611 C 103.775223 539.799255 103.830719 539.486328 104.621826 517.172485 C 105.062576 504.740143 105.125496 489.893921 104.761665 484.180939 C 104.175377 474.97522 103.722061 473.621429 100.776306 472.279266 C 98.948227 471.44632 97.452507 470.171661 97.452507 469.446655 C 97.452507 468.6586 108.407364 468.35553 124.693108 468.693054 C 148.736176 469.191345 152.712372 469.611542 158.567398 472.27298 C 162.215912 473.931427 167.762802 477.850067 170.893738 480.981049 C 174.890793 484.978088 177.285202 489.077454 178.932465 494.743744 C 180.569107 500.373657 181.00174 505.168549 180.36319 510.601471 C 179.859787 514.884705 177.771255 521.469727 175.722031 525.234802 C 173.672806 528.999939 169.932785 533.654297 167.410889 535.57782 C 164.888992 537.501343 159.419785 540.46106 155.257034 542.154907 C 148.717697 544.815857 144.152237 545.325684 121.686028 545.903809 Z M 313.962219 546.219238 C 305.400879 546.219238 298.400177 545.741638 298.40509 545.157898 C 298.410004 544.574158 300.320404 543.01178 302.650391 541.685974 C 306.886719 539.27533 306.886719 539.27533 306.886719 507.589203 C 306.886719 478.689331 306.65918 475.697113 304.298889 473.561096 C 302.87558 472.27301 300.96521 471.219116 300.053589 471.219116 C 299.141998 471.219116 298.396149 470.582336 298.396149 469.804016 C 298.396149 468.921753 306.255707 468.412292 319.268829 468.45105 C 333.393188 468.493073 341.933472 469.151672 345.684113 470.488037 C 348.732513 471.574249 352.815857 474.052124 354.758148 475.994446 C 357.429199 478.665497 358.448608 481.442688 358.942047 487.392761 C 359.574402 495.018585 359.425934 495.422424 354.095123 500.57428 C 351.070557 503.497375 347.352356 506.581329 345.832489 507.427582 C 343.238983 508.871582 343.544617 509.566956 350.803406 518.73761 C 355.057312 524.111877 360.766541 530.999146 363.49057 534.042725 C 366.2146 537.086243 370.51297 540.442749 373.04248 541.501709 C 375.57196 542.560608 377.641541 544.055237 377.641541 544.82312 C 377.641541 545.608521 373.299286 546.219238 367.715088 546.219238 C 358.425201 546.219238 357.486694 545.924255 353.080322 541.620117 C 350.490723 539.090637 346.158142 534.155518 343.452332 530.653137 C 340.746552 527.150818 336.451202 521.224243 333.907135 517.483032 C 329.819763 511.472321 328.760864 510.731415 324.805878 511.115112 C 320.330139 511.549347 320.330139 511.549347 320.330139 525.700317 C 320.330139 539.851257 320.330139 539.851257 324.929199 541.875549 C 327.45871 542.988892 329.528259 544.421631 329.528259 545.059509 C 329.528259 545.697327 322.523529 546.219238 313.962219 546.219238 Z M 529.349182 545.892517 C 512.065735 546.10199 497.928772 545.783569 497.933685 545.184937 C 497.938599 544.586365 499.848938 543.01178 502.178955 541.685974 C 506.415283 539.27533 506.415283 539.27533 506.736237 514.799133 C 506.912781 501.337219 506.896973 486.86676 506.701172 482.642609 C 506.50528 478.418427 505.646149 474.120056 504.79184 473.090698 C 503.937469 472.06134 502.042938 471.219116 500.581635 471.219116 C 499.120331 471.219116 497.924713 470.569641 497.924713 469.775879 C 497.924713 468.828247 508.25116 468.463776 527.995483 468.714569 C 558.066284 469.096466 558.066284 469.096466 558.490723 477.233276 C 558.757751 482.354523 558.351501 485.370087 557.394348 485.370087 C 556.557922 485.370087 555.30011 483.861725 554.599182 482.018158 C 553.898315 480.174622 551.570007 477.28595 549.425232 475.598877 C 545.998901 472.903717 544.054321 472.580658 533.39978 472.936615 C 521.273804 473.341766 521.273804 473.341766 521.273804 487.492737 C 521.273804 501.643677 521.273804 501.643677 532.253113 502.05719 C 542.876831 502.457336 543.276672 502.354218 544.600159 498.87323 C 545.352417 496.894623 546.620422 495.275757 547.417969 495.275757 C 548.279175 495.275757 548.868164 499.585999 548.868164 505.888977 C 548.868164 511.726257 548.390503 516.498169 547.806824 516.493225 C 547.223145 516.488342 545.644531 514.549805 544.29895 512.185364 C 541.884583 507.942841 541.717468 507.891876 531.56311 508.302795 C 521.273804 508.719177 521.273804 508.719177 520.867004 522.661255 C 520.6026 531.72583 521.034424 537.295288 522.101624 538.581116 C 523.266296 539.984436 527.159424 540.558838 535.50592 540.558838 C 541.975525 540.558838 548.895203 539.940491 550.882935 539.184753 C 552.870667 538.429016 556.255371 535.269226 558.404358 532.162964 C 560.553345 529.056763 563.119629 526.491089 564.107361 526.461548 C 565.358582 526.424133 565.614441 527.588196 564.951233 530.299377 C 564.427673 532.439697 563.273499 536.738098 562.386536 539.851257 C 560.773743 545.511658 560.773743 545.511658 529.349182 545.892517 Z M 691.085327 546.219238 C 683.225525 546.219238 678.997314 545.690796 679.311646 544.747864 C 679.58136 543.938599 681.38562 542.500793 683.321045 541.552734 C 685.256531 540.604614 687.916016 537.605164 689.23114 534.887268 C 690.546204 532.169373 694.564148 523.577698 698.159912 515.794617 C 701.755615 508.011627 707.586853 494.957336 711.118225 486.785156 C 714.649536 478.613007 718.444214 470.982269 719.550903 469.828003 C 720.967285 468.350647 722.193604 468.141174 723.693176 469.120453 C 724.864746 469.885559 729.590393 478.648438 734.194519 488.593506 C 738.798706 498.538544 745.947327 514.05542 750.080261 523.075378 C 756.391235 536.848755 758.331421 539.83075 762.193909 541.694275 C 764.723328 542.914673 766.792969 544.432068 766.792969 545.066223 C 766.792969 545.700378 759.788208 546.219238 751.226929 546.219238 C 741.542236 546.219238 735.660828 545.671265 735.660828 544.769104 C 735.660828 543.971497 737.317505 542.689087 739.342468 541.91925 C 742.011475 540.904419 742.777527 539.843811 742.127563 538.062744 C 741.634583 536.711548 736.363647 524.939697 730.414429 511.903137 C 724.46521 498.866577 719.192566 488.200256 718.69751 488.200256 C 718.202332 488.200256 714.088928 496.956177 709.556458 507.657837 C 705.024048 518.359497 700.289673 529.874756 699.035645 533.247253 C 696.848938 539.12793 696.871277 539.463379 699.580811 541.436829 C 701.134705 542.568665 702.618408 544.107666 702.877747 544.856934 C 703.156311 545.661377 698.327759 546.219238 691.085327 546.219238 Z M 895.650208 546.219238 C 888.682617 546.219238 882.602112 545.578918 882.117065 544.794128 C 881.63269 544.010315 882.391113 543.009155 883.80249 542.569397 C 885.213806 542.129578 887.285828 541.292603 888.406982 540.709412 C 889.528076 540.126221 890.938293 538.1026 891.540649 536.212463 C 892.142944 534.322266 894.278076 520.995117 896.285217 506.596527 C 898.292358 492.197906 899.566284 478.943512 899.115906 477.142303 C 898.624939 475.177795 896.61853 473.282135 894.101868 472.404816 C 891.794312 471.600403 889.906311 470.367767 889.906311 469.665588 C 889.906311 468.963409 894.592957 468.388916 900.321045 468.388916 C 910.735779 468.388916 910.735779 468.388916 924.646545 496.690857 C 932.297424 512.256897 939.070007 524.992798 939.696838 524.992798 C 940.323547 524.992798 947.210266 512.256897 955.000732 496.690857 C 969.165161 468.388916 969.165161 468.388916 978.356567 468.388916 C 983.411804 468.388916 987.547974 468.982819 987.547974 469.708679 C 987.547974 470.434509 986.273743 471.432831 984.716309 471.927124 C 983.158875 472.421448 981.268555 473.97699 980.515564 475.383911 C 979.596924 477.100433 980.044861 486.262817 981.877197 503.236237 C 983.379089 517.148071 985.110229 531.077698 985.724121 534.190918 C 986.618958 538.728088 987.752991 540.25293 991.439453 541.875549 C 993.968933 542.988892 996.038513 544.421631 996.038513 545.059509 C 996.038513 545.697327 988.662292 546.219238 979.647034 546.219238 C 967.359924 546.219238 963.399841 545.786072 963.832031 544.48938 C 964.14917 543.537964 965.953491 542.387268 967.841553 541.932251 C 970.967041 541.179016 971.26709 540.415405 971.19342 533.402649 C 971.148865 529.166382 970.273499 517.262817 969.247986 506.950287 C 968.222595 496.637756 966.969055 488.200256 966.462219 488.200256 C 965.955383 488.200256 959.18927 501.043854 951.426392 516.741577 C 943.663452 532.43927 936.580566 545.525146 935.686523 545.821167 C 934.758667 546.128479 928.122986 534.183167 920.224731 517.987427 C 912.614807 502.382813 905.902954 489.615356 905.30957 489.615356 C 904.716187 489.615356 903.869141 492.321747 903.427368 495.629517 C 902.985535 498.937317 901.747498 509.603607 900.676208 519.332397 C 899.262756 532.168213 899.152222 537.546814 900.273376 538.937378 C 901.123108 539.991333 903.277283 541.408325 905.060486 542.086304 C 906.843567 542.764282 908.302551 543.971497 908.302551 544.769104 C 908.302551 545.651062 903.345398 546.219238 895.650208 546.219238 Z M 1313.727539 546.219238 C 1306.33374 546.219238 1300.288208 545.741638 1300.293213 545.157898 C 1300.297974 544.574158 1302.153809 543.043152 1304.416992 541.755615 C 1306.680298 540.46814 1309.441162 537.920959 1310.552612 536.095276 C 1311.663818 534.269531 1316.302979 524.497498 1320.861816 514.379517 C 1325.420654 504.261627 1331.817871 489.933777 1335.078125 482.539886 C 1340.007568 471.360352 1341.536133 469.096466 1344.15564 469.096466 C 1346.894653 469.096466 1349.180176 473.263428 1361.67749 501.042389 C 1369.582031 518.612671 1377.184204 534.720093 1378.571045 536.836731 C 1379.958008 538.953369 1382.651367 541.277771 1384.556274 542.002075 C 1386.461548 542.726379 1388.020142 543.971497 1388.020142 544.769104 C 1388.020142 545.671265 1382.138672 546.219238 1372.454102 546.219238 C 1362.769531 546.219238 1356.888062 545.671265 1356.888062 544.769104 C 1356.888062 543.971497 1358.551392 542.686584 1360.584229 541.913696 C 1363.119141 540.94989 1364.067017 539.738281 1363.601318 538.05719 C 1363.227661 536.709045 1360.058838 529.238037 1356.559448 521.455017 C 1353.059937 513.671997 1348.343872 503.483307 1346.079468 498.813477 C 1343.814819 494.143677 1341.138672 490.322906 1340.132446 490.322906 C 1339.126221 490.322906 1335.757935 496.372437 1332.647583 503.766327 C 1329.536987 511.160217 1325.361694 521.348877 1323.369141 526.407837 C 1321.376465 531.466797 1319.430298 536.72699 1319.044434 538.097168 C 1318.533081 539.911926 1319.541016 541.006104 1322.756836 542.127075 C 1325.184692 542.97345 1327.171021 544.240356 1327.171021 544.942566 C 1327.171021 545.644714 1321.12146 546.219238 1313.727539 546.219238 Z M 1518.208984 546.219238 C 1509.647583 546.219238 1502.646851 545.741638 1502.651855 545.157898 C 1502.656738 544.574158 1504.567139 543.01178 1506.897217 541.685974 C 1511.133545 539.27533 1511.133545 539.27533 1511.133545 506.539398 C 1511.133545 473.803467 1511.133545 473.803467 1506.888184 472.20105 C 1504.553223 471.319702 1502.642944 470.037231 1502.642944 469.351074 C 1502.642944 468.660858 1513.278809 468.325317 1526.450928 468.600006 C 1549.631592 469.083374 1550.413086 469.198456 1556.104736 472.966125 C 1560.246094 475.707672 1562.420532 478.405579 1563.563354 482.220184 C 1564.769653 486.246277 1564.77063 489.112488 1563.567017 493.582275 C 1562.313599 498.237305 1560.639893 500.399414 1556.003052 503.353455 C 1552.728027 505.43985 1549.484131 507.619446 1548.794067 508.197052 C 1548.104126 508.774628 1550.969482 513.581116 1555.161987 518.878113 C 1559.35437 524.17511 1565.013184 530.999146 1567.737305 534.042725 C 1570.461426 537.086243 1574.759766 540.442749 1577.289185 541.501709 C 1579.818726 542.560608 1581.888306 544.055237 1581.888306 544.82312 C 1581.888306 545.611389 1577.470093 546.219238 1571.740112 546.219238 C 1561.617065 546.219238 1561.577271 546.203918 1555.714233 540.084961 C 1552.481567 536.711121 1546.372559 528.9104 1542.138794 522.750061 C 1535.00769 512.374084 1534.077881 511.549347 1529.509033 511.549347 C 1524.576904 511.549347 1524.576904 511.549347 1524.576904 525.700317 C 1524.576904 539.851257 1524.576904 539.851257 1529.176025 541.875549 C 1531.705444 542.988892 1533.775024 544.421631 1533.775024 545.059509 C 1533.775024 545.697327 1526.770386 546.219238 1518.208984 546.219238 Z M 137.782745 540.783325 C 140.895966 540.409729 145.446838 539.270142 147.895828 538.250977 C 150.344833 537.23175 154.59314 533.775574 157.336533 530.570496 C 160.369919 527.026672 162.9935 521.954529 164.031677 517.626831 C 164.970657 513.712891 165.389603 507.12616 164.962662 502.989685 C 164.535736 498.85321 163.11528 493.211609 161.806122 490.452698 C 160.496964 487.693848 156.980164 483.227112 153.991089 480.526611 C 151.001984 477.826172 145.953323 474.915771 142.77182 474.059082 C 139.590302 473.202393 133.027084 472.690521 128.18689 472.9216 C 119.386497 473.341766 119.386497 473.341766 119.004951 505.082916 C 118.774994 524.215942 119.167976 537.368591 119.994331 538.194946 C 120.748344 538.948975 123.785568 539.992676 126.743805 540.514282 C 129.701996 541.035889 134.66951 541.156982 137.782745 540.783325 Z M 325.734955 506.596527 C 328.36731 506.596527 332.4646 505.918976 334.840088 505.090881 C 337.215607 504.262787 340.251465 502.378235 341.586548 500.903015 C 342.921631 499.427795 344.327942 495.434906 344.711731 492.029938 C 345.181427 487.862885 344.643219 484.357178 343.065338 481.305908 C 341.776001 478.812653 338.669342 475.794281 336.16156 474.598419 C 333.653412 473.402374 329.066254 472.630554 325.966095 472.882935 C 320.330139 473.341766 320.330139 473.341766 319.924011 488.104614 C 319.700623 496.224182 319.839844 503.706482 320.233368 504.731995 C 320.630188 505.766083 323.080536 506.596527 325.734955 506.596527 Z M 1530.518555 506.596527 C 1533.137939 506.596527 1537.406006 505.708588 1540.003418 504.623352 C 1542.600952 503.538116 1545.764282 501.167664 1547.033447 499.355652 C 1548.401245 497.403015 1549.341064 493.249786 1549.341064 489.158997 C 1549.341064 483.196289 1548.686279 481.60199 1544.529785 477.445526 C 1540.516113 473.431793 1538.686279 472.634216 1533.492065 472.634216 C 1530.067505 472.634216 1526.501465 473.398346 1525.567383 474.332336 C 1524.470215 475.429626 1523.869385 481.103821 1523.869385 490.370087 C 1523.869385 498.256897 1524.293945 505.134247 1524.812744 505.653107 C 1525.331665 506.171997 1527.899292 506.596527 1530.518555 506.596527 Z M 394.66156 386.985718 C 393.346375 388.175934 391.901825 388.781189 391.451416 388.33075 C 391.000916 387.88028 391.791626 384.854126 393.208374 381.605957 C 394.625183 378.357758 396.790497 372.261932 398.020172 368.059692 C 399.249817 363.857422 400.934387 354.959412 401.763641 348.286255 C 402.865631 339.41803 402.828674 332.716187 401.626129 323.379517 C 400.721313 316.353943 398.392426 305.511353 396.450806 299.284943 C 394.509277 293.058533 390.684113 283.678131 387.950378 278.439667 C 385.216766 273.201141 378.880432 264.110291 373.86972 258.237793 C 368.858978 252.365265 361.130676 244.705231 356.695709 241.215485 C 352.260712 237.725769 343.53772 232.344391 337.311279 229.256866 C 331.084869 226.169373 320.098877 222.271759 312.89798 220.595581 C 301.690765 217.986786 297.105957 217.660828 281.058319 218.332092 C 269.009644 218.83606 258.771851 220.102539 252.405533 221.876587 C 246.957397 223.394806 239.315887 225.920502 235.424377 227.489288 C 231.532867 229.058044 224.209763 232.778961 219.150772 235.758026 C 214.091782 238.73703 205.769882 245.334198 200.657562 250.418335 C 195.545288 255.502472 188.602264 263.750824 185.228668 268.748016 C 181.855026 273.745148 176.984299 282.978638 174.404831 289.266907 C 171.825333 295.555115 168.579651 305.475983 167.192245 311.313263 C 165.693878 317.616943 164.669571 327.385254 164.669571 335.369873 C 164.669571 342.763794 165.440552 353.270844 166.382904 358.718994 C 167.325256 364.167114 169.747559 372.676422 171.765778 377.628571 C 173.784042 382.58075 175.025543 387.0383 174.524673 387.534241 C 174.023804 388.030212 172.147797 386.601288 170.355743 384.358887 C 167.097488 380.281799 167.097488 380.281799 142.853653 379.123291 C 129.519531 378.486145 104.138329 376.947968 86.450966 375.7052 C 68.763557 374.462372 44.509956 372.576416 32.554062 371.514099 C 20.598166 370.451782 10.146587 368.913177 9.328312 368.09491 C 8.288064 367.054688 8.867568 366.227356 11.254981 365.34436 C 13.132895 364.64978 21.595963 362.053619 30.061836 359.575073 C 38.527668 357.096558 47.676476 354.140167 50.392487 353.005341 C 54.42923 351.318665 55.214771 350.33548 54.695557 347.619446 C 54.34623 345.791992 51.694866 340.855469 48.803696 336.649384 C 45.912483 332.443298 39.385502 322.739075 34.299309 315.084351 C 29.213116 307.429688 25.383917 300.834595 25.789946 300.428589 C 26.19593 300.022552 29.061665 301.730408 32.158222 304.223755 C 35.254784 306.717133 43.597622 313.630615 50.697891 319.587128 C 57.798161 325.543579 69.410728 334.982605 76.503571 340.562744 C 83.596458 346.142883 95.482346 353.707886 102.916702 357.373901 C 110.351051 361.039917 120.918839 365.571106 126.40065 367.443237 C 131.882507 369.315369 142.378906 372.379517 149.725983 374.252411 C 157.073059 376.125305 163.552704 377.368225 164.125183 377.014404 C 164.697678 376.660583 163.369781 371.444153 161.174362 365.422394 C 158.978912 359.400635 156.320038 349.379333 155.265717 343.152924 C 154.211426 336.926514 153.348801 328.011414 153.348801 323.341553 C 153.348801 318.671753 154.144012 310.22699 155.115936 304.575348 C 156.087875 298.923737 159.110672 288.775452 161.833252 282.02356 C 164.555817 275.271698 169.418701 265.311523 172.639633 259.889893 C 175.860611 254.46817 183.344925 244.93396 189.271454 238.702637 C 195.197998 232.471344 204.515442 224.449371 209.976959 220.876099 C 215.438431 217.302765 225.05278 211.975189 231.342148 209.036926 C 238.523697 205.681915 248.252823 202.631531 257.497131 200.836517 C 265.735565 199.236847 278.1362 197.961884 285.660278 197.940979 C 293.054169 197.92038 304.193573 198.961945 310.414459 200.255524 C 316.635376 201.549042 325.493683 204.138641 330.099518 206.010162 C 334.705353 207.881683 342.020233 211.414429 346.354675 213.860657 C 350.689178 216.306885 357.432373 220.703461 361.339508 223.630798 C 365.246643 226.558167 372.0448 232.678833 376.446503 237.232269 C 380.848206 241.785736 387.132202 249.332062 390.410919 254.001862 C 393.689636 258.671661 397.970062 265.994812 399.923157 270.275482 C 401.87619 274.556122 404.980255 282.834442 406.821075 288.671722 C 408.661896 294.509003 410.919098 304.819061 411.837128 311.583008 C 413.099518 320.884827 413.11557 327.458374 411.902954 338.56427 C 410.901917 347.732422 408.763458 357.464203 406.209808 364.473816 C 403.960297 370.648285 401.600128 376.914307 400.964966 378.398376 C 399.854584 380.992615 400.432648 381.060089 415.966431 380.149658 C 424.852386 379.628845 448.042572 378.584503 467.500122 377.828888 C 486.957703 377.073273 528.986084 375.819397 560.896484 375.042542 C 592.806885 374.265686 643.590698 372.970459 673.749512 372.164307 C 703.908264 371.358093 751.030945 370.069153 778.466614 369.299927 C 805.902283 368.530701 860.50769 367.18515 899.812012 366.309814 C 939.116333 365.434448 1010.514404 364.323608 1058.474487 363.841278 C 1106.434448 363.358917 1155.467651 363.384064 1167.43689 363.897156 C 1182.511841 364.543396 1194.472534 365.961487 1206.360229 368.511902 C 1215.798828 370.536926 1231.345703 374.735413 1240.908936 377.841858 C 1250.471802 380.948303 1258.583252 383.202972 1258.93396 382.852295 C 1259.284546 382.501587 1257.641479 377.564911 1255.282715 371.881897 C 1252.923706 366.198914 1250.008911 357.728394 1248.805176 353.058594 C 1247.601685 348.388794 1246.189941 338.49234 1245.668091 331.066528 C 1244.950317 320.853821 1245.30896 314.654663 1247.140137 305.617035 C 1248.471802 299.045624 1251.410278 288.883057 1253.670166 283.033569 C 1255.930054 277.184082 1260.679077 267.450989 1264.223389 261.404419 C 1267.7677 255.357941 1274.943359 245.871246 1280.169312 240.322906 C 1285.395264 234.774597 1293.810181 227.094971 1298.869141 223.25705 C 1303.927979 219.419159 1313.798462 213.467377 1320.803101 210.030792 C 1327.807739 206.594299 1337.359619 202.812775 1342.029541 201.62738 C 1346.699463 200.442017 1356.335815 198.753387 1363.443726 197.874878 C 1373.181519 196.671356 1379.568481 196.688141 1389.353516 197.943024 C 1396.49585 198.859039 1406.918579 201.065277 1412.514893 202.845856 C 1418.111084 204.626434 1428.421143 209.07019 1435.425903 212.720856 C 1443.002075 216.669434 1452.932129 223.528809 1459.936768 229.652435 C 1466.838989 235.686554 1474.957397 244.611298 1479.555054 251.219391 C 1483.868774 257.419556 1489.254761 266.383575 1491.523926 271.139404 C 1493.792847 275.895233 1497.367798 286.402344 1499.467896 294.488464 C 1502.570679 306.434967 1503.29248 312.373444 1503.318481 326.171753 C 1503.343506 339.495544 1502.654541 345.728119 1500.119141 355.10968 C 1498.342041 361.685852 1495.284668 370.600983 1493.324951 374.921021 C 1491.365356 379.241028 1488.505127 384.298584 1486.968872 386.160034 C 1485.432739 388.021484 1483.860107 389.228638 1483.473999 388.84259 C 1483.088135 388.456573 1485.123291 381.202454 1487.99707 372.72229 C 1492.60791 359.115845 1493.296631 355.265106 1493.858398 339.955292 C 1494.382568 325.66925 1493.97168 320.423279 1491.531006 310.238251 C 1489.798218 303.006531 1485.568359 291.88269 1481.345947 283.453644 C 1477.37439 275.524689 1470.489746 264.709198 1466.046875 259.419128 C 1461.60376 254.129059 1454.170166 246.690979 1449.527466 242.890015 C 1444.884766 239.08902 1434.718262 232.884094 1426.935303 229.101166 C 1419.152222 225.318268 1408.008423 221.127747 1402.171143 219.788879 C 1396.12793 218.40274 1385.4646 217.323303 1377.40686 217.281952 C 1369.09375 217.239288 1358.002075 218.265564 1350.520142 219.769562 C 1342.720459 221.337494 1332.848022 224.679901 1325.04834 228.393341 C 1318.043701 231.728271 1308.638062 237.262512 1304.147339 240.69165 C 1299.656616 244.120728 1291.817261 251.702332 1286.726563 257.539612 C 1280.569946 264.599426 1275.161743 272.890717 1270.573853 282.303802 C 1266.780273 290.086823 1262.405518 301.230713 1260.852051 307.067963 C 1259.298584 312.905243 1257.610352 321.593018 1257.100464 326.374115 C 1256.590698 331.155212 1256.961426 341.343903 1257.924438 349.015656 C 1258.887451 356.687378 1261.459595 368.249207 1263.640015 374.708618 C 1267.268311 385.456482 1267.400146 386.537079 1265.194336 387.444458 C 1263.868774 387.989807 1153.892578 388.349609 1020.802734 388.244019 C 887.712952 388.138428 692.92334 387.325226 587.937012 386.43689 C 417.140198 384.991699 396.801117 385.049469 394.66156 386.985718 Z M 15.20661 261.384705 C 12.388898 261.782684 9.680035 261.455566 9.186966 260.657745 C 8.693876 259.859924 12.272881 256.039825 17.140318 252.16864 C 22.007734 248.297485 31.590466 241.615295 38.435295 237.319397 C 45.280079 233.023468 60.290512 224.696106 71.791794 218.814087 C 83.293083 212.932129 100.298935 204.852814 109.582611 200.860046 C 118.866241 196.867371 133.694687 190.791199 142.534637 187.357483 C 151.374588 183.923737 166.657654 178.614197 176.496948 175.558441 C 186.336243 172.502716 204.893661 167.411255 217.735672 164.244141 C 230.577682 161.076965 254.457428 156.21875 270.801788 153.44809 C 287.146118 150.677399 308.160309 147.478058 317.499939 146.33844 C 326.8396 145.198853 348.80896 142.731506 366.32077 140.85556 C 383.832581 138.979523 411.533112 136.456299 427.877441 135.248322 C 444.221771 134.040344 471.285492 132.411865 488.019012 131.629486 C 508.694519 130.66272 521.844421 129.362549 529.056824 127.571838 C 534.894104 126.122528 544.445984 123.23526 550.283264 121.155701 C 556.120544 119.076111 569.811584 113.777588 580.707825 109.381134 C 591.604065 104.984741 610.071045 97.292542 621.745605 92.287415 C 633.420166 87.282288 651.568787 80.028992 662.075867 76.169006 C 672.582947 72.309052 689.457947 66.351654 699.575867 62.930298 C 709.693848 59.508972 725.613708 54.398804 734.953308 51.574402 C 744.292908 48.749939 759.575989 44.527039 768.915588 42.190186 C 778.255188 39.853271 793.095398 36.400574 801.893738 34.517517 C 810.692139 32.634399 830.432739 29.432434 845.761719 27.401917 C 861.090759 25.37146 880.319031 23.187683 888.491211 22.549194 C 896.663452 21.910645 917.359192 20.928467 934.481873 20.366455 C 954.567932 19.707214 974.651611 19.942749 991.085693 21.030457 C 1005.095154 21.957703 1025.472534 23.658752 1036.368774 24.81073 C 1047.265015 25.962646 1062.548096 27.574646 1070.331055 28.393005 C 1078.114136 29.211304 1094.352295 31.132507 1106.416016 32.662292 C 1118.479736 34.192078 1133.762695 36.353394 1140.378296 37.46521 C 1146.994019 38.577026 1161.321777 41.075256 1172.218018 43.016846 C 1183.114136 44.958496 1196.805298 47.55719 1202.642578 48.791809 C 1208.479858 50.026428 1221.852417 52.58075 1232.359619 54.468018 C 1242.866699 56.355225 1261.651978 60.190308 1274.104858 62.990326 C 1286.557861 65.790344 1306.147339 70.239594 1317.637451 72.877563 C 1329.127441 75.515472 1348.385132 79.957489 1360.432129 82.748688 C 1372.479248 85.539825 1394.44043 90.667603 1409.234619 94.143738 C 1424.028931 97.619843 1448.391602 103.345428 1463.374023 106.867279 C 1478.356323 110.389099 1496.345825 114.807983 1503.350464 116.686981 C 1510.355103 118.56601 1527.548584 122.376801 1541.558105 125.155487 C 1555.567505 127.934143 1576.900024 132.454376 1588.963745 135.200439 C 1601.027466 137.946442 1621.404907 142.45401 1634.246826 145.217224 C 1647.088745 147.980377 1657.861328 150.503632 1658.185547 150.82431 C 1658.509888 151.14502 1658.40332 151.779236 1657.948975 152.233612 C 1657.494507 152.688049 1647.359009 152.021637 1635.425293 150.752655 C 1623.491821 149.483704 1601.947388 147.500153 1587.548706 146.344788 C 1572.509644 145.13797 1532.163696 143.876282 1492.737305 143.379822 C 1445.309937 142.782562 1415.579468 143.050171 1396.510742 144.24588 C 1381.333862 145.197601 1354.90686 147.20694 1337.78418 148.711029 C 1320.661621 150.215149 1293.91626 153.046112 1278.35022 155.002045 C 1262.78418 156.957977 1241.251465 160.116791 1230.499634 162.021667 C 1219.747925 163.926514 1207.807983 165.901978 1203.966675 166.41156 C 1199.301514 167.030365 1196.982178 166.825714 1196.982178 165.795227 C 1196.982178 164.946655 1199.688477 163.562714 1202.996338 162.719849 C 1206.304199 161.876984 1215.696777 159.387512 1223.869019 157.187714 C 1232.04126 154.987946 1246.369019 151.197693 1255.708618 148.764984 C 1265.048218 146.332214 1282.241699 142.163727 1293.91626 139.501587 C 1305.59082 136.839478 1326.60498 132.963593 1340.61438 130.888519 C 1354.623901 128.813416 1373.636353 125.933167 1382.86438 124.488007 C 1392.092285 123.042847 1399.999268 121.503784 1400.435059 121.067871 C 1400.871094 120.631958 1400.962402 120.05304 1400.638062 119.781433 C 1400.313843 119.509827 1391.133301 116.9935 1380.237061 114.189667 C 1369.340942 111.385803 1355.013062 107.513214 1348.397461 105.583862 C 1341.78186 103.654572 1323.633301 99.093292 1308.067261 95.447662 C 1292.501099 91.802094 1266.924194 85.703552 1251.229492 81.895386 C 1235.534668 78.087219 1206.879028 71.746979 1187.550171 67.805969 C 1168.221313 63.864899 1139.670776 58.51178 1124.104736 55.910156 C 1108.538696 53.308411 1083.066895 49.520569 1067.500854 47.492615 C 1051.934814 45.4646 1024.57959 42.544128 1006.711609 41.002502 C 988.843506 39.460999 963.900024 38.199707 951.281616 38.199707 C 938.663208 38.199707 918.577271 38.861328 906.64624 39.669983 C 894.715271 40.478577 876.993591 42.094971 867.264771 43.261902 C 857.536011 44.428833 836.521851 47.932739 820.566589 51.048401 C 804.611389 54.164124 782.960388 59.008606 772.453369 61.813995 C 761.946289 64.619415 745.708008 69.444702 736.368408 72.536957 C 727.028809 75.62915 712.406067 80.992157 703.873535 84.454712 C 695.341064 87.917328 681.649902 94.188812 673.448975 98.391449 C 665.247986 102.594086 654.429199 108.759613 649.407166 112.092621 C 644.385254 115.425629 640.30365 118.789459 640.337036 119.567749 C 640.370483 120.346039 642.56897 122.054962 645.222717 123.365326 C 648.477844 124.972717 656.723083 126.224884 670.566406 127.214142 C 681.851807 128.020569 710.507446 129.364319 734.245728 130.200226 C 757.984009 131.036102 814.764893 131.851318 860.425598 132.01181 C 906.086182 132.172272 943.922302 132.781189 944.505859 133.364929 C 945.089355 133.948669 945.301392 134.656525 944.977173 134.937897 C 944.652832 135.21936 926.557312 136.184204 904.764832 137.082092 C 882.97229 137.980011 853.043091 139.330719 838.25531 140.08371 C 823.467529 140.83667 795.13031 142.144165 775.283508 142.989197 C 755.436768 143.83429 719.457947 145.106232 695.330627 145.815796 C 671.203247 146.52533 618.349365 147.709534 577.877625 148.447266 C 537.405945 149.184998 491.875122 150.493805 476.698273 151.355713 C 461.521393 152.21756 435.412842 153.88028 418.679321 155.050568 C 401.945801 156.220825 378.384491 158.096558 366.32077 159.218842 C 354.25708 160.341156 333.56131 162.885803 320.330139 164.873657 C 307.098969 166.861481 291.179138 169.129944 284.952728 169.914642 C 278.726318 170.699341 265.672058 172.949188 255.943268 174.914276 C 246.214478 176.879333 233.478622 179.690704 227.641342 181.161743 C 221.804077 182.632782 210.023376 185.725128 201.462067 188.0336 C 192.900757 190.342072 175.388947 195.743164 162.546921 200.036041 C 149.70491 204.328918 127.417145 212.910614 113.018562 219.106445 C 98.61998 225.302338 76.013809 235.617096 62.78265 242.028229 C 49.551495 248.439301 34.58688 255.254425 29.527893 257.172882 C 24.468906 259.09137 18.024364 260.986664 15.20661 261.384705 Z"/>
</svg>
